<svg width="48" height="47" viewBox="0 0 48 47" fill="none" xmlns="http://www.w3.org/2000/svg">
<path d="M34.55 34.5C35.4167 34.5 36.15 34.1833 36.75 33.5499C37.35 32.9166 37.65 32.1666 37.65 31.2999C37.65 30.4333 37.35 29.7 36.75 29.1C36.15 28.5 35.4167 28.2 34.55 28.2C33.6833 28.2 32.9333 28.5 32.3 29.1C31.6667 29.7 31.35 30.4333 31.35 31.2999C31.35 32.1666 31.6667 32.9166 32.3 33.5499C32.9333 34.1833 33.6833 34.5 34.55 34.5ZM34.5 40.75C35.6 40.75 36.6 40.5166 37.5 40.0499C38.4 39.5833 39.1667 38.9166 39.8 38.0499C38.9333 37.5833 38.0667 37.2333 37.2 37C36.3333 36.7666 35.4333 36.65 34.5 36.65C33.5667 36.65 32.6583 36.7666 31.775 37C30.8917 37.2333 30.0333 37.5833 29.2 38.0499C29.8333 38.9166 30.5917 39.5833 31.475 40.0499C32.3583 40.5166 33.3667 40.75 34.5 40.75ZM24 44C19.4 42.9333 15.5833 40.325 12.55 36.1749C9.51667 32.025 8 27.2666 8 21.9V9.94995L24 3.94995L40 9.94995V23.45C39.5333 23.2166 39.0333 23.0083 38.5 22.825C37.9667 22.6416 37.4667 22.5166 37 22.45V12.05L24 7.24995L11 12.05V21.9C11 24.4333 11.4083 26.7666 12.225 28.9C13.0417 31.0333 14.0833 32.9083 15.35 34.525C16.6167 36.1416 18.0167 37.4833 19.55 38.5499C21.0833 39.6166 22.5667 40.3833 24 40.8499C24.2 41.25 24.5 41.7 24.9 42.2C25.3 42.7 25.6333 43.0833 25.9 43.3499C25.6 43.5166 25.2833 43.6416 24.95 43.7249C24.6167 43.8083 24.3 43.9 24 44ZM34.65 44C32.05 44 29.8333 43.0749 28 41.2249C26.1667 39.375 25.25 37.1833 25.25 34.65C25.25 32.05 26.1667 29.825 28 27.975C29.8333 26.125 32.05 25.2 34.65 25.2C37.2167 25.2 39.425 26.125 41.275 27.975C43.125 29.825 44.05 32.05 44.05 34.65C44.05 37.1833 43.125 39.375 41.275 41.2249C39.425 43.0749 37.2167 44 34.65 44Z" fill="#E3BF57"/>
</svg>
