<svg width="33" height="33" viewBox="0 0 33 33" fill="none" xmlns="http://www.w3.org/2000/svg">
<path d="M4.125 28.875V9.79688H9.79688V4.125H23.2031V15.4688H28.875V28.875H18.3219V23.2031H14.6781V28.875H4.125ZM6.1875 26.8125H9.79688V23.2031H6.1875V26.8125ZM6.1875 21.1406H9.79688V17.5312H6.1875V21.1406ZM6.1875 15.4688H9.79688V11.8594H6.1875V15.4688ZM11.8594 21.1406H15.4688V17.5312H11.8594V21.1406ZM11.8594 15.4688H15.4688V11.8594H11.8594V15.4688ZM11.8594 9.79688H15.4688V6.1875H11.8594V9.79688ZM17.5312 21.1406H21.1406V17.5312H17.5312V21.1406ZM17.5312 15.4688H21.1406V11.8594H17.5312V15.4688ZM17.5312 9.79688H21.1406V6.1875H17.5312V9.79688ZM23.2031 26.8125H26.8125V23.2031H23.2031V26.8125ZM23.2031 21.1406H26.8125V17.5312H23.2031V21.1406Z" fill="#21AE76"/>
</svg>
