<svg width="48" height="48" viewBox="0 0 48 48" fill="none" xmlns="http://www.w3.org/2000/svg">
<path d="M6 42V14.25H14.25V6H33.75V22.5H42V42H26.65V33.75H21.35V42H6ZM9 39H14.25V33.75H9V39ZM9 30.75H14.25V25.5H9V30.75ZM9 22.5H14.25V17.25H9V22.5ZM17.25 30.75H22.5V25.5H17.25V30.75ZM17.25 22.5H22.5V17.25H17.25V22.5ZM17.25 14.25H22.5V9H17.25V14.25ZM25.5 30.75H30.75V25.5H25.5V30.75ZM25.5 22.5H30.75V17.25H25.5V22.5ZM25.5 14.25H30.75V9H25.5V14.25ZM33.75 39H39V33.75H33.75V39ZM33.75 30.75H39V25.5H33.75V30.75Z" fill="white"/>
</svg>
