<svg width="20" height="20" viewBox="0 0 20 20" fill="none" xmlns="http://www.w3.org/2000/svg">
<path d="M2.91669 14.2292V16.25H17.0834V14.2292H2.91669ZM6.10419 5.00002V2.91669C6.10419 2.58335 6.22919 2.29169 6.47919 2.04169C6.72919 1.79169 7.02085 1.66669 7.35419 1.66669H12.625C12.9584 1.66669 13.25 1.79169 13.5 2.04169C13.75 2.29169 13.875 2.58335 13.875 2.91669V5.00002H17.0834C17.4167 5.00002 17.7084 5.12502 17.9584 5.37502C18.2084 5.62502 18.3334 5.91669 18.3334 6.25002V16.25C18.3334 16.5834 18.2084 16.875 17.9584 17.125C17.7084 17.375 17.4167 17.5 17.0834 17.5H2.91669C2.58335 17.5 2.29169 17.375 2.04169 17.125C1.79169 16.875 1.66669 16.5834 1.66669 16.25V6.25002C1.66669 5.91669 1.79169 5.62502 2.04169 5.37502C2.29169 5.12502 2.58335 5.00002 2.91669 5.00002H6.10419ZM2.91669 11.9792H17.0834V6.25002H13.875V7.81252H12.625V6.25002H7.35419V7.81252H6.10419V6.25002H2.91669V11.9792ZM7.35419 5.00002H12.625V2.91669H7.35419V5.00002ZM2.91669 16.25V6.25002V7.81252V6.25002V7.81252V6.25002V16.25Z" fill="white"/>
</svg>
