<svg width="33" height="33" viewBox="0 0 33 33" fill="none" xmlns="http://www.w3.org/2000/svg">
<path d="M4.8125 23.4781V26.8125H28.1875V23.4781H4.8125ZM10.0719 8.25V4.8125C10.0719 4.2625 10.2781 3.78125 10.6906 3.36875C11.1031 2.95625 11.5844 2.75 12.1344 2.75H20.8312C21.3812 2.75 21.8625 2.95625 22.275 3.36875C22.6875 3.78125 22.8937 4.2625 22.8937 4.8125V8.25H28.1875C28.7375 8.25 29.2187 8.45625 29.6312 8.86875C30.0437 9.28125 30.25 9.7625 30.25 10.3125V26.8125C30.25 27.3625 30.0437 27.8437 29.6312 28.2562C29.2187 28.6687 28.7375 28.875 28.1875 28.875H4.8125C4.2625 28.875 3.78125 28.6687 3.36875 28.2562C2.95625 27.8437 2.75 27.3625 2.75 26.8125V10.3125C2.75 9.7625 2.95625 9.28125 3.36875 8.86875C3.78125 8.45625 4.2625 8.25 4.8125 8.25H10.0719ZM4.8125 19.7656H28.1875V10.3125H22.8937V12.8906H20.8312V10.3125H12.1344V12.8906H10.0719V10.3125H4.8125V19.7656ZM12.1344 8.25H20.8312V4.8125H12.1344V8.25ZM4.8125 26.8125V10.3125V12.8906V10.3125V12.8906V10.3125V26.8125Z" fill="#21AE76"/>
</svg>
