<svg width="30" height="33" viewBox="0 0 30 33" fill="none" xmlns="http://www.w3.org/2000/svg">
<path d="M6.1875 26.8125H7.7L22.9281 11.5844L21.4156 10.0718L6.1875 25.3V26.8125ZM27.2938 10.1062L22.8937 5.70623L24.3375 4.26248C24.7271 3.87289 25.2083 3.6781 25.7812 3.6781C26.3542 3.6781 26.8354 3.87289 27.225 4.26248L28.7375 5.77498C29.1271 6.16456 29.3219 6.64581 29.3219 7.21873C29.3219 7.79164 29.1271 8.27289 28.7375 8.66248L27.2938 10.1062ZM25.85 11.55L8.525 28.875H4.125V24.475L21.45 7.14998L25.85 11.55ZM22.1719 10.8281L21.4156 10.0718L22.9281 11.5844L22.1719 10.8281Z" fill="#21AE76"/>
</svg>
