<svg width="33" height="33" viewBox="0 0 33 33" fill="none" xmlns="http://www.w3.org/2000/svg">
<path d="M2.75 27.4999V24.2687C2.75 23.4895 2.94479 22.7733 3.33437 22.1202C3.72396 21.4671 4.30833 20.9687 5.0875 20.6249C6.7375 19.8916 8.25 19.3645 9.625 19.0437C11 18.7228 12.375 18.5624 13.75 18.5624C14.4146 18.5624 15.1193 18.6025 15.8641 18.6827C16.6089 18.7629 17.3708 18.9062 18.15 19.1124L16.4656 20.7968C16.0073 20.7509 15.5547 20.7108 15.1078 20.6765C14.6609 20.6421 14.2083 20.6249 13.75 20.6249C12.4208 20.6249 11.212 20.7452 10.1234 20.9858C9.0349 21.2265 7.63125 21.7249 5.9125 22.4812C5.52292 22.6645 5.24219 22.928 5.07031 23.2718C4.89844 23.6155 4.8125 23.9478 4.8125 24.2687V25.4374H15.7781L17.8406 27.4999H2.75ZM21.4844 28.0499L16.6375 23.203L18.0812 21.7593L21.4844 25.1624L28.8062 17.8405L30.25 19.2843L21.4844 28.0499ZM13.75 16.4312C12.2375 16.4312 11 15.9499 10.0375 14.9874C9.075 14.0249 8.59375 12.7874 8.59375 11.2749C8.59375 9.7624 9.075 8.5249 10.0375 7.5624C11 6.5999 12.2375 6.11865 13.75 6.11865C15.2625 6.11865 16.5 6.5999 17.4625 7.5624C18.425 8.5249 18.9062 9.7624 18.9062 11.2749C18.9062 12.7874 18.425 14.0249 17.4625 14.9874C16.5 15.9499 15.2625 16.4312 13.75 16.4312ZM13.75 14.3687C14.6437 14.3687 15.3828 14.0765 15.9672 13.4921C16.5516 12.9077 16.8437 12.1687 16.8437 11.2749C16.8437 10.3812 16.5516 9.64209 15.9672 9.05772C15.3828 8.47334 14.6437 8.18115 13.75 8.18115C12.8562 8.18115 12.1172 8.47334 11.5328 9.05772C10.9484 9.64209 10.6562 10.3812 10.6562 11.2749C10.6562 12.1687 10.9484 12.9077 11.5328 13.4921C12.1172 14.0765 12.8562 14.3687 13.75 14.3687Z" fill="#21AE76"/>
</svg>
