<svg width="645" height="456" viewBox="0 0 645 456" fill="none" xmlns="http://www.w3.org/2000/svg">
<g clip-path="url(#clip0_12_1998)">
<path d="M513.828 201.8L515.743 185.605C516.423 179.849 519.242 174.614 523.58 171.052C527.918 167.49 533.419 165.892 538.873 166.61C544.327 167.328 549.288 170.303 552.663 174.881C556.039 179.459 557.553 185.264 556.872 191.02L554.958 207.215C554.865 207.988 554.487 208.691 553.904 209.169C553.322 209.647 552.583 209.862 551.851 209.767L516.246 205.079C515.514 204.982 514.848 204.582 514.395 203.967C513.941 203.352 513.738 202.573 513.828 201.8Z" fill="#2F2E41"/>
<path d="M530.883 206.632C539.275 206.632 546.077 199.453 546.077 190.597C546.077 181.742 539.275 174.563 530.883 174.563C522.491 174.563 515.689 181.742 515.689 190.597C515.689 199.453 522.491 206.632 530.883 206.632Z" fill="#FFB8B8"/>
<path d="M510.724 186.26C511.267 181.709 513.499 177.571 516.929 174.754C520.359 171.937 524.708 170.671 529.022 171.234L532.091 171.638C536.403 172.211 540.324 174.566 542.994 178.186C545.663 181.806 546.862 186.395 546.329 190.947L546.291 191.271L539.804 190.417L538.365 183.588L537.149 190.068L533.797 189.626L533.071 186.181L532.458 189.45L510.686 186.584L510.724 186.26Z" fill="#2F2E41"/>
<path d="M456.569 247.795C457.033 248.758 457.692 249.601 458.498 250.265C459.305 250.93 460.239 251.399 461.237 251.641C462.234 251.883 463.269 251.892 464.27 251.666C465.27 251.44 466.212 250.985 467.028 250.334L480.828 258.865L487.787 251.279L468.137 239.52C467.009 238.146 465.443 237.256 463.735 237.019C462.027 236.783 460.296 237.215 458.87 238.235C457.444 239.255 456.422 240.792 455.998 242.554C455.574 244.316 455.777 246.181 456.569 247.795Z" fill="#FFB8B8"/>
<path d="M501.799 263.125C491.62 263.125 473.707 258.316 472.715 258.048L472.402 257.963L475.221 242.9L502.581 248.603L517.445 226.514L534.51 224.683L534.034 225.345C533.812 225.653 511.814 256.212 508.391 261.338C507.527 262.632 505.059 263.125 501.799 263.125Z" fill="#3F3D56"/>
<path d="M504.528 319.662L504.121 319.457C504.034 319.413 495.386 314.974 490.906 306.307C486.448 297.681 507.318 261.091 508.778 258.552L508.799 246.932L516.307 225.541L525.882 219.83L517.661 240.072L504.528 319.662Z" fill="#3F3D56"/>
<path d="M494.936 444.555L485.786 444.554L481.432 407.306L494.938 407.307L494.936 444.555Z" fill="#FFB8B8"/>
<path d="M497.27 453.916L467.764 453.915V453.521C467.764 450.306 468.974 447.224 471.128 444.951C473.281 442.678 476.202 441.401 479.248 441.401H479.249L497.27 441.402L497.27 453.916Z" fill="#2F2E41"/>
<path d="M593.227 436.092L584.532 439.099L569.404 405.133L582.238 400.695L593.227 436.092Z" fill="#FFB8B8"/>
<path d="M598.207 444.221L570.168 453.916L570.051 453.541C569.103 450.487 569.343 447.16 570.719 444.292C572.096 441.425 574.495 439.252 577.389 438.25L577.39 438.25L594.515 432.329L598.207 444.221Z" fill="#2F2E41"/>
<path d="M575.51 430.002L549.423 384.043L527.402 334.942L507.585 378.315L499.713 434.49L472.106 434.895L472.214 434.44L514.462 257.286L547.55 262.503L546.044 285.551L546.941 286.897C554.416 298.103 562.144 309.689 557.711 322.178L570.277 361.551L598.092 427.114L575.51 430.002Z" fill="#2F2E41"/>
<path d="M515.974 295.68C511.18 295.68 505.709 289.903 508.547 280.04L508.364 279.899L515.18 248.119C509.231 239.141 517.074 231.732 517.809 231.07L521.553 223.959L538.07 212.904L546.428 286.185L546.304 286.309C540.268 292.404 519.996 295.68 515.974 295.68Z" fill="#28B679"/>
<path d="M549.802 312.216C549.146 312.227 548.49 312.154 547.851 311.998C547.208 311.828 546.168 310.965 544.561 305.443C538.172 283.491 530.629 217.44 536.109 210.977L536.235 210.829L545.233 212.411C545.981 211.829 549.906 208.937 553.528 209.44C554.273 209.539 554.992 209.799 555.639 210.202C556.286 210.606 556.847 211.145 557.289 211.787L557.351 211.872L560.218 254.909L570.719 305.555L570.468 305.675C569.857 305.968 556.743 312.216 549.802 312.216Z" fill="#3F3D56"/>
<path d="M543.751 295.395C544.773 295.359 545.776 295.087 546.688 294.598C547.6 294.109 548.4 293.414 549.03 292.564C549.661 291.713 550.107 290.727 550.337 289.675C550.567 288.623 550.576 287.53 550.363 286.474L563.535 276.9L559.974 267.034L541.552 280.83C539.895 281.326 538.467 282.445 537.54 283.978C536.613 285.51 536.25 287.348 536.521 289.143C536.792 290.938 537.678 292.566 539.01 293.719C540.343 294.871 542.029 295.468 543.751 295.395Z" fill="#FFB8B8"/>
<path d="M559.188 284.572L547.455 275.492L563.948 251.758L551.292 228.188L556.954 211.101L557.32 211.837C557.49 212.18 574.392 246.159 577.341 251.605C580.408 257.269 560.253 283.207 559.394 284.308L559.188 284.572Z" fill="#3F3D56"/>
<path d="M295.268 391.392L285.283 386.955L278.432 334.128H187.21L179.785 386.739L170.851 391.453C170.424 391.679 170.081 392.05 169.878 392.507C169.676 392.964 169.625 393.479 169.735 393.97C169.845 394.461 170.109 394.898 170.483 395.211C170.858 395.524 171.322 395.694 171.8 395.694H294.445C294.935 395.694 295.41 395.516 295.789 395.188C296.168 394.861 296.428 394.405 296.525 393.899C296.622 393.392 296.55 392.866 296.321 392.409C296.092 391.952 295.72 391.593 295.268 391.392Z" fill="#E6E6E6"/>
<path d="M457.377 341.157H9.26699C6.91589 341.151 4.66288 340.161 3.00226 338.405C1.34163 336.649 0.409012 334.269 0.408997 331.788V265.104H466.235V331.788C466.235 334.269 465.302 336.649 463.642 338.405C461.981 340.161 459.728 341.151 457.377 341.157Z" fill="#CCCCCC"/>
<path d="M466.703 296.62H0V11.2939C0.00327833 8.29959 1.13192 5.42888 3.13831 3.3116C5.14471 1.19432 7.86501 0.00336579 10.7024 7.62939e-06H456.001C458.838 0.00335808 461.559 1.19431 463.565 3.31159C465.571 5.42887 466.7 8.29957 466.703 11.2939V296.62Z" fill="#3F3D56"/>
<path d="M438.829 275.911H27.8743C25.6869 275.909 23.5897 274.991 22.0429 273.358C20.4961 271.726 19.626 269.513 19.6235 267.204V29.4159C19.626 27.1074 20.496 24.8942 22.0428 23.2618C23.5896 21.6294 25.6868 20.7112 27.8743 20.7085H438.829C441.017 20.7112 443.114 21.6294 444.661 23.2618C446.207 24.8942 447.077 27.1074 447.08 29.4159V267.204C447.077 269.513 446.207 271.726 444.66 273.358C443.114 274.991 441.017 275.909 438.829 275.911Z" fill="white"/>
<path d="M348.604 396.246H117.683C117.446 396.251 117.215 396.173 117.024 396.025C116.834 395.877 116.695 395.667 116.63 395.427C116.589 395.264 116.584 395.093 116.616 394.927C116.648 394.761 116.715 394.606 116.812 394.472C116.91 394.338 117.036 394.23 117.179 394.155C117.323 394.08 117.481 394.041 117.641 394.041H348.519C348.768 394.032 349.013 394.112 349.214 394.269C349.415 394.425 349.56 394.649 349.625 394.903C349.658 395.064 349.658 395.232 349.622 395.392C349.587 395.553 349.517 395.704 349.419 395.833C349.321 395.961 349.197 396.065 349.056 396.137C348.915 396.208 348.761 396.245 348.604 396.246Z" fill="#CCCCCC"/>
<path d="M434.442 59.1517H335.219V139.148H434.442V59.1517Z" fill="#F2F2F2"/>
<path d="M429.511 63.1267H340.149V135.173H429.511V63.1267Z" fill="white"/>
<path d="M386.4 116.567C386.411 116.567 386.423 116.567 386.435 116.566C392.484 116.232 398.186 113.479 402.38 108.868C406.574 104.256 408.947 98.131 409.015 91.7391C409.083 85.3471 406.841 79.1679 402.746 74.4579C398.65 69.748 393.009 66.861 386.968 66.384C386.894 66.3778 386.818 66.388 386.748 66.4139C386.677 66.4398 386.612 66.4809 386.557 66.5345C386.502 66.5872 386.458 66.6514 386.428 66.7229C386.398 66.7944 386.382 66.8718 386.381 66.9501L385.86 115.986C385.859 116.139 385.915 116.285 386.016 116.394C386.117 116.503 386.255 116.565 386.4 116.567Z" fill="#3F3D56"/>
<path d="M367.714 74.4926C367.9 74.4949 368.077 74.5747 368.207 74.7145L384.203 91.9784C384.267 92.0474 384.318 92.1293 384.352 92.2192C384.386 92.309 384.403 92.4052 384.402 92.502L384.153 115.966C384.152 116.067 384.132 116.166 384.093 116.258C384.054 116.35 383.997 116.433 383.927 116.5C383.856 116.569 383.773 116.622 383.682 116.655C383.591 116.688 383.495 116.701 383.399 116.694C378.951 116.342 374.685 114.689 371.078 111.92C367.472 109.15 364.669 105.375 362.984 101.017C361.299 96.6585 360.8 91.891 361.541 87.2497C362.282 82.6085 364.236 78.2773 367.181 74.743C367.245 74.6668 367.323 74.6053 367.41 74.5623C367.497 74.5192 367.592 74.4955 367.688 74.4927C367.697 74.4925 367.705 74.4925 367.714 74.4926Z" fill="#E6E6E6"/>
<path d="M383.98 66.1836C384.159 66.1859 384.33 66.2597 384.459 66.39C384.528 66.4595 384.583 66.5434 384.62 66.6363C384.657 66.7293 384.675 66.8293 384.674 66.9301L384.449 88.1008C384.447 88.2466 384.405 88.3885 384.327 88.5088C384.249 88.6291 384.139 88.7223 384.01 88.7766C383.882 88.8309 383.742 88.8438 383.607 88.8138C383.471 88.7838 383.348 88.7121 383.251 88.6079L369.292 73.543C369.226 73.4714 369.174 73.3863 369.14 73.2928C369.106 73.1994 369.09 73.0996 369.093 72.9995C369.097 72.8995 369.12 72.8012 369.16 72.7107C369.201 72.6202 369.259 72.5393 369.33 72.4731C373.39 68.702 378.536 66.4864 383.937 66.1845C383.951 66.1837 383.966 66.1835 383.98 66.1836Z" fill="#28B679"/>
<path d="M376.789 126.735C376.78 127.629 376.519 128.499 376.041 129.236C375.563 129.973 374.889 130.544 374.103 130.876C373.318 131.209 372.456 131.288 371.628 131.104C370.8 130.92 370.042 130.481 369.45 129.842C368.859 129.203 368.46 128.394 368.304 127.516C368.148 126.638 368.243 125.731 368.575 124.91C368.908 124.089 369.464 123.39 370.173 122.902C370.882 122.414 371.712 122.159 372.558 122.169C373.693 122.184 374.775 122.673 375.568 123.529C376.362 124.385 376.801 125.538 376.789 126.735Z" fill="#28B679"/>
<path d="M389.015 126.88C389.006 127.773 388.745 128.643 388.267 129.38C387.789 130.117 387.115 130.688 386.329 131.021C385.544 131.353 384.682 131.433 383.854 131.248C383.026 131.064 382.268 130.625 381.676 129.987C381.085 129.348 380.686 128.539 380.53 127.661C380.374 126.783 380.468 125.876 380.801 125.055C381.134 124.233 381.69 123.534 382.399 123.047C383.108 122.559 383.938 122.304 384.784 122.314C385.918 122.328 387.001 122.818 387.794 123.674C388.587 124.53 389.026 125.683 389.015 126.88Z" fill="#3F3D56"/>
<path d="M401.241 127.025C401.231 127.918 400.971 128.788 400.493 129.525C400.015 130.262 399.341 130.833 398.555 131.165C397.77 131.498 396.908 131.577 396.08 131.393C395.252 131.209 394.494 130.77 393.902 130.131C393.31 129.493 392.911 128.683 392.756 127.805C392.6 126.927 392.694 126.021 393.027 125.199C393.36 124.378 393.915 123.679 394.624 123.191C395.333 122.703 396.164 122.448 397.01 122.458C398.144 122.473 399.227 122.962 400.02 123.818C400.813 124.674 401.252 125.827 401.241 127.025Z" fill="#E6E6E6"/>
<path d="M433.397 151.738H334.174V231.734H433.397V151.738Z" fill="#F2F2F2"/>
<path d="M428.467 155.713H339.105V227.759H428.467V155.713Z" fill="white"/>
<path d="M354.267 179.392C356.316 179.392 357.977 177.639 357.977 175.476C357.977 173.314 356.316 171.561 354.267 171.561C352.218 171.561 350.556 173.314 350.556 175.476C350.556 177.639 352.218 179.392 354.267 179.392Z" fill="#3F3D56"/>
<path d="M413.883 172.429C414.213 172.429 414.541 172.497 414.847 172.63C415.153 172.763 415.431 172.959 415.665 173.206C415.899 173.452 416.085 173.745 416.211 174.068C416.338 174.39 416.403 174.736 416.403 175.085C416.403 175.434 416.338 175.78 416.211 176.102C416.085 176.424 415.899 176.717 415.665 176.964C415.431 177.211 415.153 177.406 414.847 177.539C414.541 177.673 414.213 177.741 413.883 177.74H374.859C374.192 177.74 373.552 177.46 373.08 176.962C372.608 176.464 372.343 175.789 372.343 175.085C372.343 174.38 372.608 173.705 373.08 173.207C373.552 172.709 374.192 172.429 374.859 172.429H413.883ZM413.883 171.779H374.859C374.447 171.778 374.04 171.863 373.659 172.029C373.278 172.195 372.932 172.438 372.641 172.745C372.35 173.052 372.119 173.417 371.961 173.819C371.803 174.22 371.722 174.65 371.722 175.085C371.722 175.519 371.803 175.95 371.961 176.351C372.119 176.752 372.35 177.117 372.641 177.424C372.932 177.731 373.278 177.975 373.659 178.14C374.04 178.306 374.447 178.391 374.859 178.391H413.883C414.294 178.391 414.702 178.306 415.083 178.14C415.464 177.975 415.809 177.731 416.101 177.424C416.392 177.117 416.623 176.752 416.781 176.351C416.939 175.95 417.02 175.519 417.02 175.085C417.02 174.65 416.939 174.22 416.781 173.819C416.623 173.417 416.392 173.052 416.101 172.745C415.809 172.438 415.464 172.195 415.083 172.029C414.702 171.863 414.294 171.778 413.883 171.779Z" fill="#3F3D56"/>
<path d="M398.485 178.391H369.108C368.277 178.391 367.481 178.042 366.893 177.422C366.306 176.802 365.976 175.962 365.976 175.085C365.976 174.208 366.306 173.367 366.893 172.747C367.481 172.127 368.277 171.779 369.108 171.779H398.485C399.316 171.779 400.112 172.127 400.7 172.747C401.287 173.367 401.617 174.208 401.617 175.085C401.617 175.962 401.287 176.802 400.7 177.422C400.112 178.042 399.316 178.391 398.485 178.391Z" fill="#28B679"/>
<path d="M354.267 195.651C356.316 195.651 357.977 193.898 357.977 191.736C357.977 189.573 356.316 187.82 354.267 187.82C352.218 187.82 350.556 189.573 350.556 191.736C350.556 193.898 352.218 195.651 354.267 195.651Z" fill="#3F3D56"/>
<path d="M413.883 188.689C414.214 188.688 414.541 188.756 414.847 188.89C415.153 189.023 415.431 189.218 415.665 189.465C415.899 189.712 416.085 190.004 416.211 190.327C416.338 190.649 416.403 190.995 416.403 191.344C416.403 191.693 416.338 192.039 416.211 192.361C416.085 192.684 415.899 192.977 415.665 193.223C415.431 193.47 415.153 193.666 414.847 193.799C414.541 193.932 414.214 194 413.883 194H374.859C374.192 194 373.552 193.72 373.08 193.222C372.608 192.724 372.343 192.048 372.343 191.344C372.343 190.64 372.608 189.964 373.08 189.466C373.552 188.968 374.192 188.689 374.859 188.689H413.883ZM413.883 188.038H374.859C374.028 188.038 373.232 188.387 372.644 189.007C372.057 189.627 371.727 190.467 371.727 191.344C371.727 192.221 372.057 193.062 372.644 193.682C373.232 194.302 374.028 194.65 374.859 194.65H413.883C414.714 194.65 415.51 194.302 416.098 193.682C416.685 193.062 417.015 192.221 417.015 191.344C417.015 190.467 416.685 189.627 416.098 189.007C415.51 188.387 414.714 188.038 413.883 188.038Z" fill="#3F3D56"/>
<path d="M409.578 194.65H369.108C368.277 194.65 367.481 194.302 366.893 193.682C366.306 193.062 365.976 192.221 365.976 191.344C365.976 190.467 366.306 189.626 366.893 189.006C367.481 188.387 368.277 188.038 369.108 188.038H409.578C410.409 188.038 411.206 188.387 411.793 189.006C412.381 189.626 412.711 190.467 412.711 191.344C412.711 192.221 412.381 193.062 411.793 193.682C411.206 194.302 410.409 194.65 409.578 194.65Z" fill="#28B679"/>
<path d="M354.267 211.911C356.316 211.911 357.977 210.158 357.977 207.995C357.977 205.833 356.316 204.079 354.267 204.079C352.218 204.079 350.556 205.833 350.556 207.995C350.556 210.158 352.218 211.911 354.267 211.911Z" fill="#3F3D56"/>
<path d="M413.883 204.948C414.214 204.947 414.541 205.016 414.847 205.149C415.153 205.282 415.431 205.478 415.665 205.724C415.899 205.971 416.085 206.264 416.211 206.586C416.338 206.909 416.403 207.254 416.403 207.603C416.403 207.953 416.338 208.298 416.211 208.621C416.085 208.943 415.899 209.236 415.665 209.483C415.431 209.729 415.153 209.925 414.847 210.058C414.541 210.191 414.214 210.26 413.883 210.259H374.859C374.192 210.259 373.552 209.979 373.08 209.481C372.608 208.983 372.343 208.308 372.343 207.603C372.343 206.899 372.608 206.224 373.08 205.726C373.552 205.228 374.192 204.948 374.859 204.948H413.883ZM413.883 204.298H374.859C374.028 204.298 373.232 204.646 372.644 205.266C372.057 205.886 371.727 206.727 371.727 207.603C371.727 208.48 372.057 209.321 372.644 209.941C373.232 210.561 374.028 210.909 374.859 210.909H413.883C414.714 210.909 415.51 210.561 416.098 209.941C416.685 209.321 417.015 208.48 417.015 207.603C417.015 206.727 416.685 205.886 416.098 205.266C415.51 204.646 414.714 204.298 413.883 204.298Z" fill="#3F3D56"/>
<path d="M385.543 210.909H369.108C368.696 210.91 368.289 210.825 367.908 210.659C367.527 210.493 367.182 210.25 366.89 209.943C366.599 209.636 366.368 209.271 366.21 208.87C366.052 208.468 365.971 208.038 365.971 207.603C365.971 207.169 366.052 206.739 366.21 206.337C366.368 205.936 366.599 205.571 366.89 205.264C367.182 204.957 367.527 204.714 367.908 204.548C368.289 204.382 368.696 204.297 369.108 204.298H385.543C386.373 204.299 387.168 204.648 387.755 205.268C388.341 205.887 388.671 206.728 388.671 207.603C388.671 208.479 388.341 209.32 387.755 209.939C387.168 210.559 386.373 210.908 385.543 210.909Z" fill="#28B679"/>
<path d="M312.241 73.3049H35.0291V223.233H312.241V73.3049Z" fill="#F2F2F2"/>
<path d="M303 80.7547H44.2694V215.783H303V80.7547Z" fill="white"/>
<path d="M270.912 195.183H82.3024C82.1459 195.183 81.9957 195.117 81.8851 195.001C81.7744 194.884 81.7122 194.725 81.7122 194.56V99.1601C81.7122 98.9948 81.7743 98.8364 81.885 98.7196C81.9957 98.6028 82.1459 98.5372 82.3024 98.5372C82.459 98.5372 82.6091 98.6028 82.7198 98.7196C82.8305 98.8364 82.8927 98.9948 82.8927 99.1601V193.937H270.912C271.069 193.937 271.219 194.003 271.33 194.12C271.44 194.237 271.503 194.395 271.503 194.56C271.503 194.725 271.44 194.884 271.33 195.001C271.219 195.117 271.069 195.183 270.912 195.183Z" fill="#3F3D56"/>
<path d="M122.6 188.331H105.445C104.981 188.331 104.535 188.136 104.207 187.789C103.878 187.442 103.694 186.972 103.693 186.482V161.526C103.694 161.036 103.878 160.566 104.207 160.22C104.535 159.873 104.981 159.678 105.445 159.677H122.6C123.065 159.678 123.51 159.873 123.839 160.22C124.167 160.566 124.352 161.036 124.352 161.526V186.482C124.352 186.972 124.167 187.442 123.839 187.789C123.51 188.136 123.065 188.331 122.6 188.331Z" fill="#28B679"/>
<path d="M153.884 188.331H136.729C136.265 188.331 135.819 188.136 135.491 187.789C135.162 187.442 134.978 186.972 134.977 186.482V137.856C134.978 137.366 135.162 136.896 135.491 136.549C135.819 136.203 136.265 136.008 136.729 136.007H153.884C154.349 136.008 154.794 136.203 155.122 136.549C155.451 136.896 155.636 137.366 155.636 137.856V186.482C155.636 186.972 155.451 187.442 155.122 187.789C154.794 188.136 154.349 188.331 153.884 188.331Z" fill="#28B679"/>
<path d="M185.168 188.331H168.013C167.549 188.331 167.103 188.136 166.775 187.789C166.446 187.442 166.262 186.972 166.261 186.482V161.526C166.262 161.036 166.446 160.566 166.775 160.22C167.103 159.873 167.549 159.678 168.013 159.677H185.168C185.633 159.678 186.078 159.873 186.406 160.22C186.735 160.566 186.92 161.036 186.92 161.526V186.482C186.92 186.972 186.735 187.442 186.406 187.789C186.078 188.136 185.633 188.331 185.168 188.331Z" fill="#28B679"/>
<path d="M216.452 188.331H199.297C198.843 188.341 198.404 188.161 198.075 187.831C197.747 187.5 197.556 187.045 197.545 186.566V128.429C197.556 127.95 197.747 127.495 198.075 127.164C198.404 126.833 198.843 126.653 199.297 126.663H216.452C216.906 126.653 217.345 126.833 217.674 127.164C218.002 127.495 218.193 127.95 218.204 128.429V186.566C218.193 187.045 218.002 187.5 217.674 187.831C217.345 188.161 216.906 188.341 216.452 188.331Z" fill="#28B679"/>
<path d="M247.736 188.331H230.581C230.117 188.331 229.671 188.136 229.343 187.789C229.014 187.442 228.829 186.972 228.829 186.482V111.694C228.829 111.204 229.014 110.734 229.343 110.387C229.671 110.04 230.117 109.846 230.581 109.845H247.736C248.2 109.846 248.646 110.04 248.974 110.387C249.303 110.734 249.488 111.204 249.488 111.694V186.482C249.488 186.972 249.303 187.442 248.974 187.789C248.646 188.136 248.2 188.331 247.736 188.331Z" fill="#28B679"/>
<path d="M114.023 152.203C115.979 152.203 117.564 150.529 117.564 148.465C117.564 146.401 115.979 144.728 114.023 144.728C112.067 144.728 110.481 146.401 110.481 148.465C110.481 150.529 112.067 152.203 114.023 152.203Z" fill="#3F3D56"/>
<path d="M145.307 127.909C147.263 127.909 148.848 126.236 148.848 124.172C148.848 122.108 147.263 120.434 145.307 120.434C143.351 120.434 141.765 122.108 141.765 124.172C141.765 126.236 143.351 127.909 145.307 127.909Z" fill="#3F3D56"/>
<path d="M176.591 152.203C178.547 152.203 180.132 150.529 180.132 148.465C180.132 146.401 178.547 144.728 176.591 144.728C174.635 144.728 173.049 146.401 173.049 148.465C173.049 150.529 174.635 152.203 176.591 152.203Z" fill="#3F3D56"/>
<path d="M207.875 116.074C209.831 116.074 211.416 114.401 211.416 112.337C211.416 110.272 209.831 108.599 207.875 108.599C205.919 108.599 204.333 110.272 204.333 112.337C204.333 114.401 205.919 116.074 207.875 116.074Z" fill="#3F3D56"/>
<path d="M239.159 102.37C241.114 102.37 242.7 100.697 242.7 98.6327C242.7 96.5685 241.114 94.8952 239.159 94.8952C237.203 94.8952 235.617 96.5685 235.617 98.6327C235.617 100.697 237.203 102.37 239.159 102.37Z" fill="#3F3D56"/>
<path d="M176.665 149.302L145.307 124.516L114.377 148.964L113.669 147.967L145.307 122.959L176.516 147.628L207.53 111.812L207.654 111.759L238.938 98.4571L239.379 99.6126L208.22 112.861L176.665 149.302Z" fill="#3F3D56"/>
<path d="M644.316 456H383.591C383.41 456 383.236 455.924 383.107 455.789C382.979 455.653 382.907 455.469 382.907 455.278C382.907 455.086 382.979 454.903 383.107 454.767C383.236 454.632 383.41 454.556 383.591 454.556H644.316C644.497 454.556 644.671 454.632 644.8 454.767C644.928 454.903 645 455.086 645 455.278C645 455.469 644.928 455.653 644.8 455.789C644.671 455.924 644.497 456 644.316 456Z" fill="#CCCCCC"/>
</g>
<defs>
<clipPath id="clip0_12_1998">
<rect width="645" height="456" fill="white"/>
</clipPath>
</defs>
</svg>
