<svg width="636" height="424" viewBox="0 0 636 424" fill="none" xmlns="http://www.w3.org/2000/svg">
<g clip-path="url(#clip0_90_2)">
<path d="M486.937 419.205C478.794 411.533 473.848 399.413 475.145 387.615C476.442 375.816 484.476 364.969 494.897 362.464C505.317 359.958 517.196 366.894 520.361 378.245C522.103 356.361 524.11 333.559 534.545 314.923C543.993 298.048 560.357 285.973 578.091 283.813C595.826 281.653 614.499 289.812 625.56 305.421C636.62 321.029 639.328 343.722 631.582 361.642C625.875 374.843 615.362 384.668 604.346 392.66C568.75 418.27 526.058 428.685 484.125 421.988L486.937 419.205Z" fill="#153542"/>
<path d="M608.022 290.264C593.388 303.555 579.964 318.42 567.942 334.643C549.128 359.947 533.904 388.316 522.799 418.764C521.986 420.985 525.221 421.952 526.025 419.755C544.194 370.272 573.199 326.657 610.387 292.901C612.057 291.385 609.678 288.76 608.022 290.264Z" fill="#112933"/>
<path d="M204.739 417.121C215.922 406.583 222.716 389.936 220.934 373.731C219.153 357.525 208.118 342.627 193.806 339.186C179.493 335.745 163.177 345.271 158.83 360.862C156.437 330.803 153.68 299.486 139.349 273.889C126.372 250.711 103.896 234.126 79.5374 231.16C55.1785 228.193 29.5318 239.398 14.34 260.837C-0.851726 282.276 -4.57136 313.444 6.06854 338.057C13.9066 356.189 28.347 369.683 43.477 380.661C91.7469 415.685 151.626 430.292 208.601 420.943" fill="#153542"/>
<path d="M38.4281 240.02C58.5272 258.275 76.966 278.692 93.4778 300.975C109.992 323.235 124.531 347.23 136.891 372.621C143.8 386.864 150.006 401.517 155.482 416.514C156.598 419.565 152.155 420.893 151.051 417.876C141.352 391.436 129.352 366.119 115.224 342.288C101.164 318.544 85.0724 296.377 67.174 276.098C57.0507 264.634 46.3697 253.799 35.1794 243.642C32.8857 241.56 36.1533 237.954 38.4281 240.02L38.4281 240.02Z" fill="#112933"/>
<path d="M456.531 423.072H189.703V117.792C189.703 52.841 237.091 0 295.338 0H350.897C409.144 0 456.531 52.841 456.531 117.792V423.072Z" fill="#112933"/>
<path d="M400.972 423.072H189.703V117.792C189.645 92.9041 196.713 68.6455 209.877 48.5478C210.362 47.8103 210.846 47.0823 211.345 46.3622C217.713 37.0498 225.29 28.8485 233.828 22.029C234.31 21.6377 234.794 21.2533 235.286 20.8688C242.429 15.3561 250.157 10.8497 258.293 7.45193C258.776 7.24773 259.268 7.04314 259.76 6.84691C267.118 3.91889 274.745 1.91321 282.501 0.866902C282.982 0.793659 283.475 0.736346 283.969 0.679031C291.527 -0.222112 299.15 -0.222112 306.708 0.679031C307.201 0.736346 307.694 0.793652 308.181 0.867685C315.935 1.91406 323.56 3.91949 330.916 6.84694C331.408 7.04318 331.9 7.24776 332.385 7.45235C340.42 10.8072 348.057 15.2464 355.124 20.671C355.615 21.0471 356.107 21.4316 356.591 21.8161C361.377 25.6252 365.872 29.8687 370.03 34.5034C373.365 38.2209 376.473 42.1835 379.332 46.3647C379.83 47.0823 380.314 47.8103 380.798 48.5467C393.963 68.6445 401.031 92.9036 400.972 117.792V423.072Z" fill="#153542"/>
<path d="M383.793 286.531C390.253 286.531 395.49 280.692 395.49 273.489C395.49 266.285 390.253 260.446 383.793 260.446C377.333 260.446 372.097 266.285 372.097 273.489C372.097 280.692 377.333 286.531 383.793 286.531Z" fill="#28B679"/>
<path d="M434.672 413.928H425.71L421.446 375.38L434.674 375.381L434.672 413.928Z" fill="#FFB8B8"/>
<path d="M419.308 411.072H436.592V423.208H408.425C408.425 421.614 408.707 420.036 409.254 418.564C409.801 417.091 410.602 415.754 411.613 414.627C412.623 413.5 413.823 412.606 415.143 411.996C416.464 411.386 417.879 411.072 419.308 411.072V411.072Z" fill="#2F2E41"/>
<path d="M479.266 413.928H470.303L466.039 375.38L479.267 375.381L479.266 413.928Z" fill="#FFB8B8"/>
<path d="M463.901 411.072H481.186V423.208H453.018C453.018 421.614 453.3 420.036 453.847 418.564C454.394 417.091 455.195 415.754 456.206 414.627C457.216 413.5 458.416 412.606 459.736 411.996C461.057 411.386 462.472 411.072 463.901 411.072V411.072Z" fill="#2F2E41"/>
<path d="M389.713 276.072C389.068 275.013 388.639 273.809 388.457 272.545C388.275 271.281 388.343 269.988 388.658 268.757C388.972 267.525 389.525 266.386 390.277 265.419C391.029 264.451 391.962 263.679 393.01 263.158L423.477 169.522L438.468 178.645L403.682 268.127C404.351 270.149 404.332 272.374 403.628 274.382C402.924 276.389 401.584 278.039 399.862 279.018C398.141 279.998 396.156 280.239 394.286 279.696C392.415 279.153 390.788 277.864 389.713 276.072V276.072Z" fill="#FFB8B8"/>
<path d="M474.687 293.667C473.691 293.03 472.833 292.158 472.172 291.111C471.511 290.064 471.064 288.868 470.862 287.608C470.661 286.348 470.709 285.053 471.005 283.816C471.3 282.579 471.835 281.429 472.572 280.448L463.134 181.397L480.195 182.266L484.117 279.696C485.514 281.186 486.372 283.195 486.529 285.344C486.685 287.492 486.13 289.63 484.968 291.352C483.805 293.074 482.117 294.261 480.222 294.688C478.327 295.114 476.358 294.751 474.687 293.667V293.667Z" fill="#FFB8B8"/>
<path d="M447.47 152.178C457.387 152.178 465.425 143.215 465.425 132.157C465.425 121.1 457.387 112.136 447.47 112.136C437.554 112.136 429.516 121.1 429.516 132.157C429.516 143.215 437.554 152.178 447.47 152.178Z" fill="#FFB8B8"/>
<path d="M474.573 271.14H420.442L420.507 270.67C420.604 269.968 430.154 200.208 423.111 177.386C422.404 175.143 422.466 172.688 423.285 170.493C424.104 168.298 425.623 166.519 427.548 165.498H427.548C437.615 160.211 456.941 153.701 473.252 169.5C475.652 171.863 477.527 174.816 478.727 178.126C479.927 181.436 480.42 185.012 480.167 188.571L474.573 271.14Z" fill="#28B679"/>
<path d="M430.838 210.517L406.468 205.004L417.891 174.819C418.575 171.895 420.271 169.393 422.606 167.862C424.942 166.33 427.727 165.894 430.351 166.65C432.974 167.405 435.222 169.29 436.601 171.89C437.98 174.491 438.378 177.596 437.707 180.523L430.838 210.517Z" fill="#28B679"/>
<path d="M462.051 220.754L460.586 183.304C459.475 176.264 463.089 169.609 468.647 168.521C474.207 167.437 479.636 172.32 480.752 179.412L486.259 214.405L462.051 220.754Z" fill="#28B679"/>
<path d="M472.772 266.656C481.482 303.646 482.432 350.675 480.082 401.974L468.386 400.344L447.186 302.524L435.489 401.974L422.33 401.159C418.399 347.334 414.572 301.126 420.868 270.732L472.772 266.656Z" fill="#2F2E41"/>
<path d="M459.301 147.63C455.951 151.609 449.731 149.473 449.294 144.038C449.26 143.616 449.263 143.191 449.302 142.769C449.527 140.362 450.774 138.176 450.476 135.634C450.408 135.001 450.197 134.398 449.862 133.882C447.192 129.896 440.927 135.665 438.408 132.057C436.863 129.844 438.679 126.361 437.493 123.888C435.929 120.625 431.295 122.235 428.389 120.447C425.156 118.459 425.349 112.927 427.478 109.563C430.073 105.459 434.624 103.27 439.118 102.954C443.612 102.639 448.075 103.993 452.271 105.817C457.038 107.888 461.766 110.751 464.699 115.426C468.267 121.11 468.61 128.752 466.826 135.399C465.74 139.442 462.036 144.381 459.301 147.63Z" fill="#2F2E41"/>
<path d="M614.056 423.596H74.3371C74.1067 423.596 73.886 423.493 73.7233 423.311C73.5606 423.129 73.4692 422.883 73.4692 422.626C73.4692 422.369 73.5606 422.122 73.7233 421.941C73.886 421.759 74.1067 421.656 74.3371 421.655H614.056C614.286 421.656 614.507 421.759 614.669 421.941C614.832 422.122 614.923 422.369 614.923 422.626C614.923 422.883 614.832 423.129 614.669 423.311C614.507 423.493 614.286 423.596 614.056 423.596V423.596Z" fill="#3F3D56"/>
<path d="M342.855 334.626H247.821C246.569 334.634 245.366 334.087 244.475 333.107C243.584 332.127 243.079 330.792 243.069 329.397V92.86C243.079 91.4644 243.584 90.13 244.475 89.1497C245.366 88.1693 246.569 87.6229 247.821 87.6304H342.855C344.107 87.6229 345.31 88.1693 346.201 89.1497C347.092 90.13 347.597 91.4644 347.607 92.86V329.397C347.597 330.792 347.092 332.127 346.201 333.107C345.31 334.087 344.107 334.634 342.855 334.626V334.626Z" fill="#001822"/>
<path d="M347.607 164.166H243.069V165.797H347.607V164.166Z" fill="#CCCCCC"/>
<path d="M347.972 257.185H243.434V258.816H347.972V257.185Z" fill="#CCCCCC"/>
<path d="M277.428 87.6305H275.965V335.441H277.428V87.6305Z" fill="#CCCCCC"/>
<path d="M313.979 87.6305H312.517V335.441H313.979V87.6305Z" fill="#CCCCCC"/>
</g>
<defs>
<clipPath id="clip0_90_2">
<rect width="636" height="424" fill="white"/>
</clipPath>
</defs>
</svg>
