<svg width="561" height="562" viewBox="0 0 561 562" fill="none" xmlns="http://www.w3.org/2000/svg">
<g clip-path="url(#clip0_86_32)">
<path d="M53.9491 473.436L49.0083 453.973C40.248 450.265 31.2853 447.053 22.1629 444.353L21.5393 453.398L19.0101 443.433C7.69668 440.203 0 438.782 0 438.782C0 438.782 10.3938 478.268 32.2012 508.455L57.6088 512.912L37.8703 515.755C40.6135 519.052 43.5614 522.173 46.6968 525.1C78.4167 554.507 113.747 568 125.609 555.236C137.471 542.471 121.372 508.285 89.6526 478.881C79.8191 469.764 67.4663 462.448 55.1007 456.689L53.9491 473.436Z" fill="#112933"/>
<path d="M100.937 452.296L106.78 433.084C101.2 425.387 95.1903 418.011 88.7789 410.99L83.5639 418.411L86.5555 408.574C78.541 399.971 72.688 394.781 72.688 394.781C72.688 394.781 61.1532 433.949 64.196 471.049L83.6392 487.982L65.2678 480.225C65.9106 484.464 66.8197 488.658 67.9897 492.783C79.9245 534.334 103.186 564.124 119.946 559.322C136.706 554.519 140.618 516.943 128.683 475.392C124.983 462.511 118.194 449.871 110.589 438.558L100.937 452.296Z" fill="#112933"/>
<path d="M391.463 133.138H388.381V48.8092C388.381 42.3995 387.117 36.0525 384.661 30.1307C382.205 24.2089 378.606 18.8282 374.068 14.2959C369.53 9.76353 364.143 6.16827 358.214 3.71538C352.285 1.26248 345.93 0 339.513 0H160.629C147.668 0 135.238 5.14239 126.074 14.2959C116.909 23.4494 111.76 35.8642 111.76 48.8092V511.452C111.76 517.862 113.024 524.209 115.48 530.131C117.936 536.053 121.536 541.433 126.074 545.966C130.611 550.498 135.999 554.093 141.928 556.546C147.857 558.999 154.211 560.261 160.629 560.261H339.513C352.473 560.261 364.903 555.119 374.067 545.965C383.232 536.812 388.38 524.397 388.38 511.452V193.165H391.462L391.463 133.138Z" fill="#28B679"/>
<path d="M341.485 12.6937H318.136C319.21 15.3233 319.62 18.1764 319.33 21.0015C319.039 23.8266 318.058 26.537 316.472 28.8941C314.886 31.2511 312.744 33.1823 310.234 34.5175C307.725 35.8528 304.925 36.5512 302.082 36.5511H199.601C196.758 36.5509 193.958 35.8524 191.449 34.517C188.94 33.1816 186.798 31.2504 185.212 28.8934C183.626 26.5365 182.644 23.8261 182.354 21.0011C182.064 18.1761 182.474 15.3232 183.548 12.6937H161.739C152.06 12.6937 142.778 16.534 135.934 23.3698C129.09 30.2055 125.245 39.4768 125.245 49.144V511.115C125.245 520.782 129.09 530.054 135.934 536.889C142.778 543.725 152.06 547.566 161.739 547.566H341.485C351.163 547.566 360.446 543.725 367.29 536.889C374.134 530.054 377.979 520.782 377.979 511.115V511.115V49.1432C377.979 39.4761 374.134 30.2051 367.29 23.3695C360.446 16.5339 351.163 12.6937 341.485 12.6937V12.6937Z" fill="#153542"/>
<path d="M228.707 196.72C228.707 193.49 229.558 190.318 231.175 187.522C232.792 184.726 235.118 182.404 237.919 180.791C235.119 179.176 231.943 178.326 228.711 178.326C225.478 178.325 222.302 179.175 219.502 180.789C216.703 182.403 214.378 184.725 212.761 187.521C211.145 190.318 210.294 193.49 210.294 196.718C210.294 199.947 211.145 203.119 212.761 205.915C214.378 208.712 216.703 211.034 219.502 212.648C222.302 214.262 225.478 215.112 228.711 215.111C231.943 215.111 235.119 214.261 237.919 212.646C235.118 211.033 232.792 208.712 231.175 205.916C229.558 203.12 228.707 199.948 228.707 196.72V196.72Z" fill="#CCCCCC"/>
<path d="M251.858 196.72C251.857 193.49 252.708 190.318 254.325 187.522C255.942 184.726 258.268 182.404 261.069 180.791C258.269 179.176 255.094 178.326 251.861 178.326C248.628 178.325 245.452 179.175 242.653 180.789C239.853 182.403 237.528 184.725 235.911 187.521C234.295 190.318 233.444 193.49 233.444 196.718C233.444 199.947 234.295 203.119 235.911 205.915C237.528 208.712 239.853 211.034 242.653 212.648C245.452 214.262 248.628 215.112 251.861 215.111C255.094 215.111 258.269 214.261 261.069 212.646C258.268 211.033 255.942 208.712 254.325 205.916C252.708 203.12 251.857 199.948 251.858 196.72V196.72Z" fill="#CCCCCC"/>
<path d="M274.482 215.112C284.653 215.112 292.897 206.877 292.897 196.719C292.897 186.561 284.653 178.326 274.482 178.326C264.312 178.326 256.067 186.561 256.067 196.719C256.067 206.877 264.312 215.112 274.482 215.112Z" fill="#28B679"/>
<path d="M305.258 254.167H197.931C196.909 254.166 195.93 253.76 195.207 253.038C194.485 252.317 194.078 251.338 194.077 250.318V143.12C194.078 142.099 194.485 141.121 195.207 140.399C195.93 139.678 196.909 139.272 197.931 139.271H305.258C306.28 139.272 307.26 139.678 307.982 140.399C308.705 141.121 309.111 142.099 309.112 143.12V250.318C309.111 251.338 308.705 252.317 307.982 253.038C307.26 253.76 306.28 254.166 305.258 254.167V254.167ZM197.931 140.811C197.318 140.812 196.73 141.055 196.297 141.488C195.863 141.921 195.619 142.508 195.619 143.121V250.319C195.619 250.931 195.863 251.518 196.297 251.951C196.73 252.384 197.318 252.627 197.931 252.628H305.258C305.871 252.627 306.459 252.384 306.893 251.951C307.326 251.518 307.57 250.931 307.571 250.319V143.121C307.57 142.508 307.326 141.921 306.893 141.488C306.459 141.055 305.871 140.812 305.258 140.811H197.931Z" fill="#CCCCCC"/>
<path d="M329.223 336.339H164.615V337.879H329.223V336.339Z" fill="#CCCCCC"/>
<path d="M169.814 326.725C172.685 326.725 175.012 324.401 175.012 321.533C175.012 318.666 172.685 316.341 169.814 316.341C166.943 316.341 164.615 318.666 164.615 321.533C164.615 324.401 166.943 326.725 169.814 326.725Z" fill="#28B679"/>
<path d="M329.223 388.258H164.615V389.798H329.223V388.258Z" fill="#CCCCCC"/>
<path d="M169.814 378.644C172.685 378.644 175.012 376.32 175.012 373.452C175.012 370.585 172.685 368.26 169.814 368.26C166.943 368.26 164.615 370.585 164.615 373.452C164.615 376.32 166.943 378.644 169.814 378.644Z" fill="#28B679"/>
<path d="M326.211 447.38H274.19C273.291 447.379 272.43 447.022 271.795 446.387C271.159 445.753 270.802 444.892 270.801 443.995V425.784C270.802 424.886 271.159 424.026 271.795 423.391C272.43 422.757 273.291 422.4 274.19 422.399H326.211C327.109 422.4 327.971 422.757 328.606 423.391C329.241 424.026 329.599 424.886 329.6 425.784V443.995C329.599 444.892 329.241 445.753 328.606 446.387C327.971 447.022 327.109 447.379 326.211 447.38V447.38Z" fill="#28B679"/>
<path d="M186.771 326.725C189.642 326.725 191.969 324.401 191.969 321.533C191.969 318.666 189.642 316.341 186.771 316.341C183.9 316.341 181.572 318.666 181.572 321.533C181.572 324.401 183.9 326.725 186.771 326.725Z" fill="#28B679"/>
<path d="M203.727 326.725C206.598 326.725 208.926 324.401 208.926 321.533C208.926 318.666 206.598 316.341 203.727 316.341C200.856 316.341 198.529 318.666 198.529 321.533C198.529 324.401 200.856 326.725 203.727 326.725Z" fill="#28B679"/>
<path d="M186.771 378.644C189.642 378.644 191.969 376.32 191.969 373.452C191.969 370.585 189.642 368.26 186.771 368.26C183.9 368.26 181.572 370.585 181.572 373.452C181.572 376.32 183.9 378.644 186.771 378.644Z" fill="#28B679"/>
<path d="M203.727 378.644C206.598 378.644 208.926 376.32 208.926 373.452C208.926 370.585 206.598 368.26 203.727 368.26C200.856 368.26 198.529 370.585 198.529 373.452C198.529 376.32 200.856 378.644 203.727 378.644Z" fill="#28B679"/>
<path d="M558.905 562H18.1364C16.9787 562 16.041 561.589 16.041 561.084C16.041 560.578 16.9787 560.167 18.1364 560.167H558.905C560.062 560.167 561 560.577 561 561.084C561 561.59 560.062 562 558.905 562Z" fill="#3F3D56"/>
<path d="M425.3 368.205C425.669 368.374 426.024 368.572 426.362 368.797L460.144 354.396L461.35 345.508L474.848 345.426L474.05 365.811L429.462 377.588C429.369 377.898 429.256 378.201 429.125 378.497C428.481 379.871 427.444 381.024 426.145 381.811C424.847 382.599 423.344 382.985 421.827 382.922C420.309 382.86 418.843 382.35 417.614 381.458C416.385 380.567 415.448 379.332 414.919 377.91C414.39 376.487 414.294 374.94 414.643 373.464C414.991 371.987 415.769 370.646 416.878 369.609C417.987 368.572 419.378 367.886 420.876 367.636C422.375 367.386 423.914 367.584 425.3 368.205V368.205Z" fill="#FFB8B8"/>
<path d="M479.757 552.931H470.523L466.13 517.358L479.758 517.358L479.757 552.931Z" fill="#FFB8B8"/>
<path d="M463.927 550.295H481.735V561.494H452.715C452.715 558.524 453.896 555.676 455.999 553.575C458.101 551.475 460.953 550.295 463.927 550.295Z" fill="#2F2E41"/>
<path d="M515.668 550.325L506.478 551.229L498.615 516.258L512.177 514.923L515.668 550.325Z" fill="#FFB8B8"/>
<path d="M499.656 549.252L517.379 547.509L518.478 558.654L489.597 561.495C489.453 560.031 489.598 558.554 490.026 557.146C490.453 555.739 491.154 554.43 492.088 553.293C493.022 552.156 494.171 551.214 495.47 550.521C496.769 549.827 498.191 549.396 499.656 549.252Z" fill="#2F2E41"/>
<path d="M482.327 307.778C492.543 307.778 500.826 299.506 500.826 289.301C500.826 279.097 492.543 270.825 482.327 270.825C472.11 270.825 463.828 279.097 463.828 289.301C463.828 299.506 472.11 307.778 482.327 307.778Z" fill="#FFB8B8"/>
<path d="M468.459 545.737C467.666 545.739 466.897 545.461 466.289 544.952C465.68 544.443 465.271 543.736 465.134 542.955C460.355 516.456 444.732 429.811 444.358 427.411C444.35 427.356 444.346 427.3 444.347 427.244V420.784C444.346 420.548 444.42 420.319 444.557 420.128L446.621 417.24C446.719 417.102 446.848 416.987 446.997 416.905C447.146 416.824 447.312 416.778 447.482 416.77C459.248 416.219 497.782 414.605 499.644 416.928C501.514 419.262 500.853 426.336 500.702 427.73L500.709 427.876L518.021 538.455C518.156 539.337 517.939 540.237 517.415 540.96C516.892 541.682 516.104 542.17 515.223 542.318L504.41 544.097C503.605 544.226 502.78 544.062 502.085 543.635C501.391 543.209 500.872 542.547 500.625 541.77C497.281 531.097 486.067 495.192 482.18 481.298C482.156 481.21 482.101 481.134 482.024 481.084C481.948 481.034 481.856 481.013 481.765 481.026C481.675 481.039 481.592 481.084 481.533 481.154C481.473 481.223 481.441 481.311 481.442 481.403C481.636 494.647 482.105 528.437 482.267 540.107L482.285 541.364C482.292 542.215 481.979 543.038 481.409 543.67C480.838 544.302 480.051 544.697 479.202 544.777L468.776 545.723C468.67 545.732 468.564 545.737 468.459 545.737Z" fill="#2F2E41"/>
<path d="M470.587 315.043C467.358 316.96 465.427 320.482 464.318 324.066C462.266 330.702 461.03 337.563 460.639 344.497L459.468 365.26L444.965 420.303C457.535 430.926 464.785 428.512 481.705 419.823C498.626 411.134 500.559 422.72 500.559 422.72L503.943 375.885L508.777 324.707C507.692 323.402 506.464 322.222 505.115 321.19C500.647 317.72 495.448 315.308 489.911 314.136C484.374 312.964 478.642 313.062 473.149 314.424L470.587 315.043Z" fill="#28B679"/>
<path d="M465.876 379.321C466.266 379.468 466.644 379.645 467.006 379.851L500.408 363.153L500.963 354.106L514.741 353.158L515.48 373.779L470.842 388.523C470.478 390.084 469.646 391.498 468.457 392.576C467.269 393.654 465.78 394.344 464.189 394.557C462.598 394.769 460.98 394.492 459.55 393.763C458.12 393.034 456.946 391.888 456.185 390.477C455.423 389.065 455.11 387.456 455.286 385.862C455.463 384.269 456.121 382.766 457.173 381.556C458.225 380.345 459.621 379.482 461.176 379.083C462.73 378.684 464.37 378.767 465.876 379.321Z" fill="#FFB8B8"/>
<path d="M508.535 324.941C516.753 327.838 518.201 359.225 518.201 359.225C508.533 353.913 496.93 362.605 496.93 362.605C496.93 362.605 494.513 354.396 491.613 343.774C490.737 340.786 490.632 337.625 491.308 334.586C491.984 331.547 493.419 328.728 495.48 326.392C495.48 326.392 500.317 322.042 508.535 324.941Z" fill="#28B679"/>
<path d="M498.914 294.188C496.609 292.346 493.464 295.693 493.464 295.693L491.62 279.118C491.62 279.118 480.096 280.497 472.721 278.658C465.345 276.819 464.193 285.335 464.193 285.335C463.813 281.895 463.735 278.429 463.962 274.975C464.423 270.832 470.416 266.688 481.018 263.925C491.62 261.162 497.152 273.134 497.152 273.134C504.528 276.816 501.219 296.029 498.914 294.188Z" fill="#2F2E41"/>
</g>
<defs>
<clipPath id="clip0_86_32">
<rect width="561" height="562" fill="white"/>
</clipPath>
</defs>
</svg>
