<svg width="33" height="33" viewBox="0 0 33 33" fill="none" xmlns="http://www.w3.org/2000/svg">
<path d="M9.625 18.8375C8.98333 18.8375 8.43333 18.6083 7.975 18.15C7.51667 17.6917 7.2875 17.1417 7.2875 16.5C7.2875 15.8583 7.51667 15.3083 7.975 14.85C8.43333 14.3917 8.98333 14.1625 9.625 14.1625C10.2667 14.1625 10.8167 14.3917 11.275 14.85C11.7333 15.3083 11.9625 15.8583 11.9625 16.5C11.9625 17.1417 11.7333 17.6917 11.275 18.15C10.8167 18.6083 10.2667 18.8375 9.625 18.8375ZM9.625 24.75C7.33333 24.75 5.38542 23.9479 3.78125 22.3438C2.17708 20.7396 1.375 18.7917 1.375 16.5C1.375 14.2083 2.17708 12.2604 3.78125 10.6562C5.38542 9.05208 7.33333 8.25 9.625 8.25C11.275 8.25 12.7187 8.63958 13.9562 9.41875C15.1937 10.1979 16.1677 11.3781 16.8781 12.9594H29.1156L33 16.8438L27.2594 22.1031L24.2344 19.9031L21.2094 22.1031L18.6313 20.0406H16.8781C16.3052 21.4156 15.4057 22.5443 14.1797 23.4266C12.9536 24.3089 11.4354 24.75 9.625 24.75ZM9.625 22.6875C10.9542 22.6875 12.1802 22.2464 13.3031 21.3641C14.426 20.4818 15.1479 19.3531 15.4688 17.9781H19.3875L21.2437 19.525L24.2687 17.3594L27.0875 19.4906L30.0094 16.775L28.2562 15.0219H15.4688C15.1938 13.7385 14.5063 12.6328 13.4062 11.7047C12.3062 10.7766 11.0458 10.3125 9.625 10.3125C7.90625 10.3125 6.44531 10.9141 5.24219 12.1172C4.03906 13.3203 3.4375 14.7812 3.4375 16.5C3.4375 18.2188 4.03906 19.6797 5.24219 20.8828C6.44531 22.0859 7.90625 22.6875 9.625 22.6875Z" fill="#21AE76"/>
</svg>
